<svg width="22" height="22" viewBox="0 0 22 22" fill="none" xmlns="http://www.w3.org/2000/svg">
<g filter="url(#filter0_d_0_15)">
<path d="M16.4697 0.46967C16.7626 0.176777 17.2374 0.176777 17.5303 0.46967C17.7966 0.735936 17.8208 1.1526 17.6029 1.44621L17.5303 1.53033L5.53033 13.5303C5.23744 13.8232 4.76256 13.8232 4.46967 13.5303C4.2034 13.2641 4.1792 12.8474 4.39705 12.5538L4.46967 12.4697L16.4697 0.46967Z" fill="#FA2905"/>
<path d="M17 0.25C17.3797 0.25 17.6935 0.532154 17.7432 0.898229L17.75 1V10C17.75 10.4142 17.4142 10.75 17 10.75C16.6203 10.75 16.3065 10.4678 16.2568 10.1018L16.25 10V1.75H8C7.6203 1.75 7.30651 1.46785 7.25685 1.10177L7.25 1C7.25 0.620304 7.53215 0.306509 7.89823 0.256847L8 0.25H17Z" fill="#FA2905"/>
</g>
<defs>
<filter id="filter0_d_0_15" x="0.25" y="0.25" width="21.5" height="21.5" filterUnits="userSpaceOnUse" color-interpolation-filters="sRGB">
<feFlood flood-opacity="0" result="BackgroundImageFix"/>
<feColorMatrix in="SourceAlpha" type="matrix" values="0 0 0 0 0 0 0 0 0 0 0 0 0 0 0 0 0 0 127 0" result="hardAlpha"/>
<feOffset dy="4"/>
<feGaussianBlur stdDeviation="2"/>
<feComposite in2="hardAlpha" operator="out"/>
<feColorMatrix type="matrix" values="0 0 0 0 0 0 0 0 0 0 0 0 0 0 0 0 0 0 0.25 0"/>
<feBlend mode="normal" in2="BackgroundImageFix" result="effect1_dropShadow_0_15"/>
<feBlend mode="normal" in="SourceGraphic" in2="effect1_dropShadow_0_15" result="shape"/>
</filter>
</defs>
</svg>
