<svg width="42" height="42" viewBox="0 0 42 42" fill="none" xmlns="http://www.w3.org/2000/svg">
<path d="M0.197379 17.6722C1.95662 6.75873 11.9066 -0.917986 22.9375 0.127415C33.9685 1.17282 42.2914 10.5812 41.9591 21.6299C41.6268 32.6786 32.7535 41.5724 21.6796 41.9563C10.6057 42.3401 1.13492 34.0822 0.0346518 23.0832C-0.0185486 22.5514 0.370507 22.0772 0.903632 22.0241C1.43676 21.9711 1.91207 22.3592 1.96527 22.891C2.96397 32.8747 11.5605 40.3704 21.6122 40.022C31.664 39.6735 39.7182 31.6007 40.0198 21.5719C40.3214 11.5431 32.7668 3.00313 22.754 2.05422C12.7413 1.10532 3.70983 8.07342 2.11297 17.9795C2.02791 18.5072 1.53013 18.8661 1.00116 18.7813C0.472178 18.6964 0.112315 18.1999 0.197379 17.6722Z" fill="#FA2905"/>
<path d="M20.9065 18.0839C21.4423 18.0839 21.8766 18.5171 21.8766 19.0516C21.8766 19.5415 21.5117 19.9464 21.0382 20.0105L20.9065 20.0193H7.97181C7.43604 20.0193 7.00171 19.5861 7.00171 19.0516C7.00171 18.5617 7.36667 18.1568 7.84017 18.0927L7.97181 18.0839H20.9065Z" fill="#FA2905"/>
<path d="M20.9014 21.9548C21.4371 21.952 21.8737 22.383 21.8766 22.9175C21.8791 23.4074 21.5163 23.8142 21.0431 23.8808L20.9115 23.8903L1.17319 23.9935C0.637421 23.9963 0.20082 23.5653 0.198012 23.0309C0.195437 22.541 0.558262 22.1342 1.03143 22.0676L1.16302 22.0581L20.9014 21.9548Z" fill="#FA2905"/>
<path d="M21.4613 10.1484C24.3725 10.1828 27.1696 11.2829 29.321 13.2397C29.7169 13.5998 29.7452 14.2119 29.3843 14.6068C29.0233 15.0018 28.4097 15.03 28.0138 14.6699C26.2139 13.0329 23.8739 12.1125 21.4498 12.0839C16.4493 12.0839 12.3955 16.1277 12.3955 21.1161C12.3955 26.1045 16.4493 30.1484 21.4218 30.1488C23.8734 30.078 26.2145 29.1154 28.004 27.4423C28.3949 27.0768 29.0088 27.0966 29.3752 27.4866C29.7416 27.8765 29.7217 28.489 29.3308 28.8545C27.1958 30.8506 24.4028 31.999 21.4498 32.0839C15.3777 32.0839 10.4553 27.1734 10.4553 21.1161C10.4553 15.0588 15.3777 10.1484 21.4613 10.1484Z" fill="#FA2905"/>
</svg>
