<svg width="40" height="40" viewBox="0 0 40 40" fill="none" xmlns="http://www.w3.org/2000/svg">
<path fill-rule="evenodd" clip-rule="evenodd" d="M25.3242 0C25.7909 0 26.1693 0.378352 26.1693 0.845073C26.1693 1.2729 25.8514 1.62647 25.4389 1.68243L25.3242 1.69015H18.5636C18.0969 1.69015 17.7186 1.31179 17.7186 0.845073C17.7186 0.417245 18.0365 0.0636723 18.449 0.00771452L18.5636 0H25.3242ZM22.0089 3.38134C31.9393 3.57665 39.8481 11.7661 39.6904 21.6768L36.585 21.1051L37.9052 19.6208C37.7813 18.4868 37.5411 17.3868 37.1968 16.3334L33.0824 20.4604L31.0659 20.0892L36.5243 14.6141C36.0219 13.5178 35.4019 12.4861 34.68 11.5354L26.7571 19.296L24.7238 18.9217L33.5869 10.2403C32.7885 9.3876 31.8997 8.62031 30.9354 7.95391L22.8115 15.8501V18.5696L24.7238 18.9217L24.7138 18.9315L22.8115 18.5828V20.7948L24.7138 18.9315L26.7484 19.3045L23.7295 22.2615L26.3152 24.8544L31.0602 20.0949L33.0781 20.4647L27.5086 26.0512L30.0204 28.57C30.0418 28.513 30.0697 28.4578 30.104 28.4055L30.1801 28.3061L36.5831 21.1072L39.6904 21.6768C39.8484 31.6311 31.9124 39.8316 21.9296 40C12.094 39.8336 4.22874 31.8252 4.19519 22.0462L4.1974 21.692C4.19479 20.4477 4.31524 19.2066 4.55679 17.9867L2.6302 19.3781C2.25184 19.6514 1.7236 19.5662 1.45033 19.1878C1.20192 18.8438 1.24975 18.376 1.54476 18.0885L1.64064 18.0079L5.29066 15.3718L5.29135 15.3713L6.49273 15.5915L9.09758 19.2137C9.37007 19.5926 9.2838 20.1207 8.90488 20.3932C8.56041 20.6409 8.09268 20.5921 7.80575 20.2965L7.72541 20.2005L6.24883 18.1472C6.00617 19.3118 5.88504 20.4994 5.88744 21.7036C5.74424 30.7253 12.9367 38.1575 21.9296 38.3101C26.1803 38.2382 30.0249 36.5503 32.8874 33.8386L21.3681 22.2869C21.2417 22.1602 21.1596 21.9975 21.1319 21.823L21.1214 21.6902V18.273L6.49273 15.5915L6.47257 15.5635L6.47222 15.563L6.39189 15.467C6.42018 15.4961 6.44672 15.5277 6.47122 15.5616L21.1214 18.2585V5.0922C17.9272 5.26095 14.8538 6.40693 12.3183 8.38816C11.9495 8.67188 11.5948 8.97333 11.2543 9.29259C10.9138 9.6118 10.379 9.59455 10.0598 9.25406C9.74057 8.91357 9.75782 8.37878 10.0983 8.05957C10.4789 7.70278 10.8754 7.36573 11.2827 7.05245C14.3256 4.67468 18.0759 3.38219 21.9519 3.38041C21.9567 3.38033 21.9616 3.38029 21.9665 3.38029C21.9807 3.38029 21.9949 3.38064 22.0089 3.38134ZM22.8115 5.10784C25.2051 5.27411 27.454 5.95543 29.4502 7.04054L22.8115 13.4931V5.10784ZM34.0535 32.6144C36.4943 29.7724 37.975 26.0835 38.0021 22.055L31.443 29.4293C31.3481 29.5361 31.2321 29.6131 31.107 29.6596L34.0535 32.6144ZM33.0781 20.4647L33.0824 20.4604L36.585 21.1051L36.5831 21.1072L33.0781 20.4647ZM31.0602 20.0949L31.0659 20.0892L26.7571 19.296L26.7484 19.3045L31.0602 20.0949Z" fill="#FA2905"/>
</svg>
