<svg width="40" height="40" viewBox="0 0 40 40" fill="none" xmlns="http://www.w3.org/2000/svg">
<path fill-rule="evenodd" clip-rule="evenodd" d="M37.4546 20.6386C37.1223 20.1801 37.1142 19.5497 37.4465 19.0831L38.1356 18.0925C38.6787 17.3148 38.8732 16.3324 38.6544 15.3991C38.4355 14.4658 37.8356 13.6717 37.0007 13.2214L35.9469 12.6484C35.4443 12.3782 35.1768 11.8215 35.266 11.2567L35.4686 10.0614C35.6226 9.11993 35.3713 8.15391 34.7796 7.40892C34.1797 6.66394 33.2961 6.21367 32.3558 6.17274L31.148 6.1318C30.5805 6.10724 30.0942 5.72247 29.9402 5.17397L29.6078 4.01146C29.2025 2.59517 27.8974 1.60458 26.4302 1.60458C25.9843 1.60458 25.5385 1.69464 25.125 1.87474L24.0226 2.34957C23.5119 2.57061 22.8877 2.43144 22.5229 2.01392L21.7204 1.11339C21.0963 0.409333 20.1965 0 19.2642 0C18.3077 0 17.3998 0.417519 16.7675 1.14613L15.9893 2.07122C15.6245 2.49693 15.0085 2.64429 14.4897 2.43144L13.3791 1.97298C12.9738 1.80925 12.5523 1.7192 12.1226 1.7192C10.6392 1.7192 9.32599 2.72616 8.93689 4.17519L8.62075 5.3377C8.47484 5.88621 7.98846 6.27916 7.42913 6.31191L6.23751 6.38559C5.28908 6.4429 4.41361 6.90135 3.82996 7.65452C3.24631 8.40769 3.01123 9.37372 3.18146 10.3152L3.40033 11.5023C3.50571 12.0671 3.23821 12.632 2.74373 12.9104L1.69802 13.4998C0.871185 13.9664 0.27943 14.7687 0.0767736 15.702C-0.125882 16.6353 0.0767736 17.6177 0.636104 18.3872L1.34135 19.3614C1.6737 19.8199 1.68181 20.4503 1.34945 20.9169L0.660423 21.9075C0.117305 22.6852 -0.0772449 23.6676 0.141623 24.6009C0.360492 25.5342 0.960353 26.3201 1.7953 26.7786L2.84911 27.3516C3.35169 27.6218 3.6192 28.1785 3.53003 28.7433L3.32738 29.9386C3.17336 30.8801 3.42465 31.8461 4.01641 32.5911C4.61627 33.3361 5.49985 33.7863 6.44017 33.8273L7.63989 33.8764C8.20733 33.9009 8.6937 34.2857 8.84772 34.8342L9.18008 35.9967C9.58539 37.413 10.8905 38.4036 12.3577 38.4036C12.8036 38.4036 13.2494 38.3135 13.6628 38.1334L14.7653 37.6586C15.276 37.4376 15.9002 37.5767 16.2649 37.9943L17.0674 38.8948C17.6916 39.5989 18.5914 40 19.5236 40C20.4802 40 21.3881 39.5825 22.0204 38.8539L22.7986 37.9288C23.1633 37.5031 23.7794 37.3557 24.2982 37.5686L25.4088 38.027C25.8141 38.1908 26.2356 38.2808 26.6652 38.2808C28.1487 38.2808 29.4619 37.2738 29.851 35.8248L30.1671 34.6623C30.313 34.1138 30.7994 33.7208 31.3587 33.6881L32.5504 33.6226C33.4988 33.5653 34.3743 33.1068 34.9579 32.3537C35.5416 31.6005 35.7766 30.6345 35.6064 29.693L35.3875 28.5059C35.2822 27.9411 35.5497 27.3762 36.0442 27.106L37.0899 26.5166C37.9167 26.0499 38.5084 25.2476 38.7111 24.3144C38.9138 23.3811 38.7111 22.3987 38.1518 21.6291L37.4546 20.6386ZM22.6121 15.6201L26.4139 15.8985C27.1921 15.9558 27.8569 16.4797 28.1 17.2329C28.3432 17.9943 28.1081 18.8129 27.5083 19.3205L24.5981 21.8011L25.506 25.5342C25.652 26.1154 25.5223 26.7212 25.1575 27.1879C24.7927 27.6627 24.2253 27.9411 23.6416 27.9411C23.2849 27.9411 22.9364 27.8428 22.6283 27.6463L19.3939 25.616L16.1595 27.6463C15.8515 27.8428 15.5029 27.9411 15.1463 27.9411C14.5626 27.9411 13.9952 27.6627 13.6304 27.1879C13.2656 26.7212 13.1359 26.1154 13.2818 25.5342L14.1897 21.8011L11.2796 19.3205C10.6797 18.8047 10.4447 17.9861 10.6878 17.2329C10.931 16.4797 11.5876 15.9558 12.3739 15.8985L16.1758 15.6201L17.6106 12.0589C17.9105 11.3221 18.6076 10.8473 19.3939 10.8473C20.1802 10.8473 20.8774 11.3221 21.1773 12.0589L22.6121 15.6201ZM22.5229 21.6783C22.4338 21.3099 22.5554 20.9169 22.8472 20.6713L26.114 17.8878L21.8582 17.5767C21.4772 17.5522 21.153 17.3066 21.0071 16.9546L19.3939 12.9595L17.7889 16.9464C17.643 17.2984 17.3106 17.544 16.9377 17.5686L12.682 17.8797L15.9488 20.6631C16.2406 20.9087 16.3622 21.3017 16.273 21.6701L15.2435 25.878L18.8751 23.5858C19.1913 23.3811 19.5966 23.3811 19.9208 23.5858L23.5443 25.8616L22.5229 21.6783ZM36.1333 24.7483C36.4657 24.56 36.7008 24.2489 36.7818 23.8723C36.8629 23.4875 36.7818 23.1109 36.5873 22.808L35.882 21.8338C35.039 20.6713 35.0309 19.1077 35.8496 17.937L36.5386 16.9464C36.7575 16.6353 36.8305 16.2505 36.7413 15.8739C36.6521 15.4973 36.417 15.1862 36.0766 15.0061L35.0228 14.4331C33.7663 13.7536 33.0854 12.3537 33.3205 10.9374L33.515 9.74212C33.5799 9.36553 33.4826 8.98895 33.2394 8.68604C33.0043 8.38314 32.6557 8.21122 32.2748 8.19484L31.075 8.14572C29.6564 8.08023 28.4405 7.1142 28.0433 5.73885L27.7109 4.57634C27.5488 4.01146 27.03 3.6185 26.4464 3.6185C26.268 3.6185 26.0978 3.65125 25.9276 3.72493L24.8251 4.19975C24.4117 4.37986 23.974 4.46991 23.52 4.46991C22.5797 4.46991 21.6799 4.06058 21.0557 3.35653L20.2532 2.456C20.0019 2.16946 19.6533 2.01392 19.2723 2.01392C18.8832 2.01392 18.5266 2.17765 18.2753 2.47237L17.489 3.38109C16.8567 4.1097 15.9488 4.52722 14.9923 4.52722C14.5626 4.52722 14.1411 4.43717 13.7358 4.27343L12.6252 3.81498C12.4631 3.74949 12.2929 3.71674 12.1226 3.71674C11.5309 3.71674 11.004 4.11789 10.85 4.69914L10.5338 5.86165C10.1528 7.24519 8.9531 8.22759 7.53451 8.30946L6.3429 8.38314C5.9619 8.4077 5.62144 8.5878 5.38636 8.89071C5.15128 9.19361 5.054 9.5702 5.12696 9.95497L5.32962 11.1257C5.58902 12.5338 4.9243 13.9501 3.68405 14.6459L2.63835 15.2354C2.30599 15.4237 2.07091 15.7348 1.98985 16.1113C1.90068 16.4879 1.98174 16.8727 2.20871 17.1838L2.91396 18.158C3.75701 19.3205 3.76511 20.8842 2.94638 22.0549L2.25735 23.0454C2.03848 23.3565 1.96553 23.7413 2.0547 24.1179C2.13576 24.4945 2.37084 24.8056 2.7113 24.9857L3.76511 25.5587C5.02158 26.2382 5.7025 27.6382 5.46742 29.0544L5.27287 30.2497C5.20802 30.6263 5.3053 31.0029 5.54848 31.3058C5.78357 31.6087 6.13213 31.7806 6.51313 31.797L7.71285 31.8461C9.13144 31.9116 10.3474 32.8776 10.7446 34.253L11.0769 35.4155C11.2391 35.9804 11.7579 36.3733 12.3415 36.3733C12.5198 36.3733 12.6901 36.3406 12.8603 36.2669L13.9628 35.7921C14.3762 35.612 14.8139 35.5219 15.2679 35.5219C16.2082 35.5219 17.108 35.9312 17.7322 36.6353L18.5347 37.5358C18.786 37.8224 19.1345 37.9779 19.5155 37.9779C19.9046 37.9779 20.2613 37.8142 20.5126 37.5194L21.2989 36.6107C21.9312 35.8821 22.8391 35.4646 23.7956 35.4646C24.2253 35.4646 24.6468 35.5546 25.0521 35.7184L26.1627 36.1768C26.3248 36.2423 26.495 36.2751 26.6652 36.2751C27.257 36.2751 27.7839 35.8739 27.9379 35.2927L28.2541 34.1302C28.6351 32.7466 29.8348 31.7642 31.2534 31.6824L32.445 31.6169C32.826 31.5923 33.1664 31.4122 33.4015 31.1093C33.6366 30.8064 33.7339 30.4216 33.6609 30.045L33.4421 28.858C33.1827 27.4499 33.8474 26.0336 35.0876 25.3377L36.1333 24.7483Z" fill="#FA2905"/>
</svg>
